<?xml version="1.0" encoding="utf-8"?>
<!-- Generator: Adobe Illustrator 26.5.0, SVG Export Plug-In . SVG Version: 6.00 Build 0)  -->
<svg version="1.1" id="Capa_1" xmlns="http://www.w3.org/2000/svg" xmlns:xlink="http://www.w3.org/1999/xlink" x="0px" y="0px"
	 viewBox="0 0 98.1 48.3" style="enable-background:new 0 0 98.1 48.3;" xml:space="preserve">
<style type="text/css">
	.st0{fill:url(#SVGID_1_);}
</style>
<g id="Layer_1">
	
		<linearGradient id="SVGID_1_" gradientUnits="userSpaceOnUse" x1="0" y1="-770.9602" x2="98.0817" y2="-770.9602" gradientTransform="matrix(1 0 0 -1 0 -746.8102)">
		<stop  offset="1.221955e-03" style="stop-color:#AC5BF1"/>
		<stop  offset="0.1669" style="stop-color:#B967D7"/>
		<stop  offset="0.5212" style="stop-color:#DA8695"/>
		<stop  offset="0.8825" style="stop-color:#FFA84C"/>
	</linearGradient>
	<path class="st0" d="M98,44.7c-0.6-4.1-1.1-8.3-1.6-12.4c-0.4-3.3-0.9-7-1.3-10.6c-0.2-1.2-0.3-2.4-0.4-3.6
		c-0.3-3.2-0.7-6.5-1.6-9.6c-0.9-2.9-2.4-5-4.3-6.3l0,0c-1.6-1.3-3.4-2-5.5-2.2H83h-0.3c-0.1,0-0.3,0-0.4,0c-0.5,0-0.9,0-1.4,0.1
		l0,0l-0.5,0.1c-3.3,0.6-6,2.7-7.7,6.1c-1,1.9-1.6,4.1-1.9,6.8c-1,7.7-1.9,15.5-2.9,23.2v0.1c-0.2,1.5-0.4,3.2-2.5,3.2
		c-1.9,0-2.2-1.6-2.3-3v-0.1c-0.3-2-0.5-4-0.8-6.1v-0.2c-0.4-3.5-0.9-7.1-1.4-10.6c-0.2-1-0.3-2.1-0.4-3.2c-0.3-3.1-0.7-6.3-2-9.2
		c-1.8-4.1-4.5-6.3-8.2-6.8l-0.5-0.1V0.2c-0.5,0-1-0.1-1.4-0.1c-4.3,0-7.6,2.2-9.7,6.3c-1,1.9-1.6,4.1-1.9,6.8
		c-1,7.7-1.9,15.5-2.9,23.2v0.1c-0.2,1.5-0.4,3.2-2.5,3.2l0,0c-1.9,0-2.2-1.6-2.3-3.1v-0.1c-0.3-2-0.5-4-0.8-6v-0.2
		c-0.5-3.5-0.9-7.1-1.4-10.6c-0.2-1-0.3-2.1-0.4-3.2c-0.3-3.1-0.7-6.3-2-9.2c-1.9-4.3-4.8-6.5-8.9-6.9c-0.5,0-0.9-0.1-1.4-0.1
		c-5.4,0-9,2.9-10.5,8.5c-0.9,3.2-1,6.5-1.2,9.7c-0.1,1.2-0.1,2.4-0.2,3.6C2,25.7,1.7,29.4,1.4,32.7C0.7,36.6,0.4,40.8,0,45
		c0,0.6,0,1.5,0.4,2c0.3,0.3,0.7,0.4,1.3,0.4c0.2,0,0.4,0,0.6,0s0.4,0,0.6,0c0.1,0,0.3,0,0.5,0s0.3,0,0.5,0c5.4,0,5.4,0,5.8-5.2
		v-0.1c0.7-9.9,1.5-20,2.2-29.7v-0.7c0.1-1,0.2-2.6,1.9-2.7c0.1,0,0.1,0,0.2,0c1.6,0,2,1.3,2.2,2.6c0.3,1.8,0.5,3.6,0.8,5.4v0.2
		c0.2,1.4,0.4,2.8,0.6,4.2c0.3,1.7,0.5,3.5,0.8,5.2c0.6,4.1,1.2,8.3,2,12.4c1,5.2,4.4,8.6,9.1,9.2c0.6,0.1,1.2,0.1,1.8,0.1
		c5.9,0,9.8-3.8,10.7-10.3c0.8-5.2,1.5-10.6,2.2-15.7l0.1-0.5c0.4-3.2,0.9-6.4,1.3-9.6c0.2-1.4,0.4-3.1,2.3-3.1c0.1,0,0.1,0,0.2,0
		c0.2,0,0.5,0,0.6,0.1l0.7,0.2l0.1,0.1c0.4,0.4,0.6,1,0.7,2c0.3,1.9,0.6,3.7,0.8,5.6c0.2,1.4,0.4,2.8,0.6,4.3
		c0.3,1.7,0.5,3.5,0.8,5.2c0.6,4.1,1.2,8.3,2,12.4c1,5.2,4.4,8.6,9.1,9.2c0.6,0.1,1.2,0.1,1.8,0.1c5.9,0,9.8-3.8,10.7-10.3
		c0.8-5.2,1.5-10.6,2.2-15.7l0.1-0.5c0.4-3.2,0.9-6.4,1.3-9.6c0.2-1.1,0.3-2.1,1-2.7l0.1-0.1l0.7-0.2C81.8,9.1,82,9,82.2,9l0,0l0,0
		c0.1,0,0.2,0,0.3,0l0.7,0.1h0.1c0.9,0.5,1.2,1.5,1.4,2.9c0.1,0.5,0.1,1,0.2,1.5c1.1,9.4,2.3,19,3.4,28.6v0.1c0.6,5.2,0.6,5.2,6,5
		c0.2,0,0.3,0,0.5,0s0.3,0,0.5,0s0.4,0,0.6,0s0.4,0,0.6,0c0.6,0,1-0.2,1.2-0.4C98.2,46.2,98.1,45.3,98,44.7z"/>
</g>
</svg>
