<?xml version="1.0" encoding="utf-8"?>
<!-- Generator: Adobe Illustrator 26.0.2, SVG Export Plug-In . SVG Version: 6.00 Build 0)  -->
<svg version="1.1" id="Layer_1" xmlns="http://www.w3.org/2000/svg" xmlns:xlink="http://www.w3.org/1999/xlink" x="0px" y="0px"
	 viewBox="0 0 240 120" style="enable-background:new 0 0 240 120;" xml:space="preserve">
<style type="text/css">
	.st0{fill:url(#SVGID_1_);}
	.st1{fill:url(#SVGID_00000169515653297342593150000011918679179463483572_);}
	.st2{fill:#AC5BF1;}
	.st3{fill:#FFA84C;}
</style>
<g>
	<g>
		<linearGradient id="SVGID_1_" gradientUnits="userSpaceOnUse" x1="69.0852" y1="60.4408" x2="167.3483" y2="60.4408">
			<stop  offset="1.221955e-03" style="stop-color:#AC5BF1"/>
			<stop  offset="0.1669" style="stop-color:#B967D7"/>
			<stop  offset="0.5212" style="stop-color:#DA8695"/>
			<stop  offset="0.8825" style="stop-color:#FFA84C"/>
		</linearGradient>
		<path class="st0" d="M167.29,81.1c-0.55-4.14-1.07-8.35-1.57-12.42c-0.4-3.29-0.86-7.01-1.33-10.6c-0.16-1.21-0.28-2.44-0.4-3.63
			c-0.32-3.2-0.65-6.49-1.65-9.62c-0.91-2.87-2.38-4.99-4.35-6.33l-0.02,0.05c-1.57-1.26-3.42-2.02-5.53-2.2l-0.24-0.03l-0.35-0.01
			c-0.14,0-0.27-0.01-0.41-0.01c-0.46,0-0.93,0.03-1.4,0.08l0,0.01l-0.51,0.09c-3.34,0.6-6.01,2.72-7.73,6.12
			c-0.96,1.91-1.57,4.07-1.9,6.79c-0.96,7.76-1.93,15.52-2.89,23.28l-0.01,0.08c-0.19,1.52-0.4,3.24-2.5,3.24
			c-1.94-0.01-2.15-1.63-2.34-3.05l-0.02-0.14c-0.27-2.02-0.53-4.04-0.79-6.06l-0.03-0.24c-0.45-3.49-0.91-7.11-1.43-10.66
			c-0.15-1.05-0.27-2.12-0.39-3.18c-0.34-3.09-0.7-6.29-2.01-9.26c-1.8-4.07-4.5-6.3-8.25-6.82l-0.53-0.07l0.01-0.13
			c-0.48-0.05-0.95-0.08-1.41-0.08c-4.28,0-7.64,2.18-9.72,6.3c-0.96,1.91-1.57,4.07-1.9,6.79c-0.96,7.76-1.93,15.52-2.89,23.28
			l-0.01,0.07c-0.19,1.52-0.4,3.24-2.5,3.24c0,0,0,0,0,0c-1.94-0.01-2.15-1.63-2.34-3.05l-0.02-0.14c-0.27-2.02-0.53-4.03-0.79-6.05
			l-0.03-0.24c-0.45-3.5-0.91-7.11-1.43-10.66c-0.15-1.05-0.27-2.12-0.39-3.17c-0.34-3.09-0.7-6.29-2.01-9.26
			c-1.9-4.29-4.81-6.54-8.89-6.9c-0.47-0.04-0.93-0.06-1.38-0.06c-5.4,0-9.05,2.93-10.54,8.48c-0.86,3.17-1.04,6.47-1.23,9.68
			c-0.07,1.2-0.14,2.44-0.24,3.65c-0.31,3.6-0.61,7.34-0.87,10.65c-0.32,4.09-0.65,8.32-1.03,12.48c-0.06,0.63-0.07,1.51,0.43,2
			c0.28,0.27,0.69,0.4,1.27,0.4c0.19,0,0.39-0.01,0.62-0.04c0.18-0.02,0.36-0.03,0.55-0.03c0.15,0,0.31,0.01,0.47,0.01
			c0.17,0.01,0.33,0.01,0.51,0.01c5.4,0,5.4,0,5.77-5.25l0.01-0.14c0.71-9.93,1.48-20.02,2.23-29.77l0.05-0.67
			c0.08-1.05,0.2-2.63,1.91-2.72c0.06,0,0.12-0.01,0.18-0.01c1.56,0,1.98,1.33,2.18,2.62c0.28,1.81,0.55,3.61,0.82,5.42l0.03,0.23
			c0.21,1.42,0.42,2.84,0.64,4.26c0.26,1.73,0.51,3.46,0.77,5.24c0.58,4.07,1.19,8.28,2,12.37c1.02,5.17,4.42,8.6,9.09,9.17
			c0.63,0.08,1.25,0.12,1.85,0.12c5.88,0,9.8-3.76,10.76-10.32c0.77-5.25,1.5-10.59,2.2-15.76l0.07-0.51
			c0.44-3.21,0.87-6.42,1.32-9.62c0.2-1.44,0.43-3.08,2.29-3.08c0.06,0,0.11,0,0.17,0.01c0.24,0.01,0.45,0.05,0.64,0.11l0.73,0.24
			l0.1,0.12c0.36,0.42,0.59,1.03,0.74,2.01c0.29,1.87,0.57,3.75,0.85,5.63c0.21,1.43,0.43,2.85,0.64,4.28
			c0.26,1.73,0.51,3.46,0.77,5.24c0.58,4.07,1.19,8.28,2,12.37c1.02,5.17,4.42,8.6,9.09,9.17c0.63,0.08,1.25,0.12,1.85,0.12
			c5.88,0,9.8-3.76,10.76-10.32c0.77-5.25,1.5-10.59,2.2-15.76l0.07-0.51c0.44-3.21,0.87-6.42,1.32-9.63
			c0.16-1.14,0.35-2.13,1.03-2.67l0.08-0.06l0.68-0.23c0.19-0.06,0.4-0.1,0.63-0.11l0.03,0l0.03,0c0.12,0.01,0.22,0.02,0.33,0.04
			l0.66,0.12l0.07,0.03c0.95,0.45,1.17,1.53,1.36,2.89c0.07,0.49,0.13,0.99,0.2,1.48c1.13,9.4,2.3,19.08,3.4,28.62l0.02,0.14
			c0.6,5.23,0.6,5.23,5.99,5c0.18-0.01,0.34-0.02,0.51-0.03c0.16-0.01,0.32-0.02,0.47-0.03c0.19-0.01,0.37-0.01,0.55,0.01
			c0.22,0.02,0.43,0.02,0.62,0.01c0.58-0.03,0.98-0.17,1.25-0.46C167.43,82.61,167.38,81.72,167.29,81.1z"/>
		<path class="st2" d="M36.39,83.53c-0.32,0-0.58-0.26-0.58-0.58V52.57c0-0.32,0.26-0.58,0.58-0.58h8.17c0.32,0,0.58,0.26,0.58,0.58
			v30.37c0,0.32-0.26,0.58-0.58,0.58H36.39z"/>
		<path class="st2" d="M36.39,45.38c-0.32,0-0.58-0.29-0.58-0.64v-8.06c0-0.35,0.26-0.64,0.58-0.64h8.17c0.32,0,0.58,0.29,0.58,0.64
			v8.06c0,0.35-0.26,0.64-0.58,0.64H36.39z"/>
		<path class="st2" d="M52.58,83.53c-0.32,0-0.58-0.26-0.58-0.58V52.57c0-0.32,0.26-0.58,0.58-0.58h8.17c0.32,0,0.58,0.26,0.58,0.58
			v30.37c0,0.32-0.26,0.58-0.58,0.58H52.58z"/>
		<path class="st2" d="M52.58,45.38c-0.32,0-0.58-0.29-0.58-0.64v-8.06c0-0.35,0.26-0.64,0.58-0.64h8.17c0.32,0,0.58,0.29,0.58,0.64
			v8.06c0,0.35-0.26,0.64-0.58,0.64H52.58z"/>
		<path class="st3" d="M175.58,83.53c-0.32,0-0.58-0.26-0.58-0.58V52.57c0-0.32,0.26-0.58,0.58-0.58h8.17
			c0.32,0,0.58,0.26,0.58,0.58v30.37c0,0.32-0.26,0.58-0.58,0.58H175.58z"/>
		<path class="st3" d="M175.58,45.38c-0.32,0-0.58-0.29-0.58-0.64v-8.06c0-0.35,0.26-0.64,0.58-0.64h8.17
			c0.32,0,0.58,0.29,0.58,0.64v8.06c0,0.35-0.26,0.64-0.58,0.64H175.58z"/>
		<path class="st3" d="M191.77,83.53c-0.32,0-0.58-0.26-0.58-0.58V52.57c0-0.32,0.26-0.58,0.58-0.58h8.17
			c0.32,0,0.58,0.26,0.58,0.58v30.37c0,0.32-0.26,0.58-0.58,0.58H191.77z"/>
		<path class="st3" d="M191.77,45.38c-0.32,0-0.58-0.29-0.58-0.64v-8.06c0-0.35,0.26-0.64,0.58-0.64h8.17
			c0.32,0,0.58,0.29,0.58,0.64v8.06c0,0.35-0.26,0.64-0.58,0.64H191.77z"/>
	</g>
	<path class="st2" d="M17.54,35.54c-0.11-0.1-0.27-0.14-0.42-0.12l-8.87,1.43c-0.12,0.02-0.23,0.08-0.31,0.18
		c-0.08,0.09-0.12,0.21-0.12,0.33v30.69c0,1.19,0.06,2.35,0.17,3.43c0.11,1.08,0.28,2.13,0.5,3.1c0.22,0.97,0.52,1.87,0.91,2.69
		c0.38,0.82,0.85,1.57,1.4,2.25c0.55,0.67,1.19,1.28,1.92,1.8c0.73,0.53,1.57,0.99,2.49,1.37c0.92,0.38,1.97,0.67,3.14,0.86
		c1.17,0.19,2.49,0.29,3.91,0.29c1.12,0,2.17-0.05,3.11-0.14c0.94-0.09,1.8-0.23,2.57-0.42c0.64-0.15,1.27-0.32,1.86-0.5
		c0.59-0.18,1.16-0.37,1.71-0.58c0.11-0.04,0.2-0.12,0.26-0.23c0.06-0.1,0.08-0.23,0.06-0.35l-1.19-6.56
		c-0.03-0.15-0.11-0.27-0.24-0.35c-0.12-0.08-0.27-0.09-0.41-0.05c-0.38,0.12-0.77,0.23-1.18,0.32c-0.41,0.1-0.82,0.18-1.26,0.26
		c-0.61,0.11-1.22,0.19-1.81,0.24c-0.59,0.05-1.19,0.08-1.76,0.08c-1.23,0-2.27-0.18-3.09-0.52c-0.85-0.36-1.5-0.91-1.93-1.64
		c-0.41-0.69-0.72-1.51-0.92-2.43c-0.2-0.91-0.3-1.94-0.3-3.08V55.62c0-0.32,0.13-0.63,0.35-0.86c0.23-0.23,0.53-0.35,0.85-0.35h11
		c0.14,0,0.27-0.05,0.37-0.15s0.15-0.23,0.15-0.37V46.8c0-0.14-0.05-0.27-0.15-0.36c-0.1-0.1-0.23-0.15-0.37-0.15h-11
		c-0.32,0-0.63-0.13-0.85-0.35c-0.23-0.23-0.35-0.53-0.35-0.85v-9.14C17.72,35.78,17.66,35.64,17.54,35.54z"/>
	<path class="st3" d="M217.89,35.54c-0.11-0.1-0.27-0.14-0.42-0.12l-8.87,1.43c-0.12,0.02-0.23,0.08-0.31,0.18
		c-0.08,0.09-0.12,0.21-0.12,0.33v30.69c0,1.19,0.06,2.35,0.17,3.43c0.11,1.08,0.28,2.13,0.5,3.1c0.22,0.97,0.52,1.87,0.91,2.69
		c0.38,0.82,0.85,1.57,1.4,2.25c0.55,0.67,1.19,1.28,1.92,1.8c0.73,0.53,1.57,0.99,2.49,1.37c0.92,0.38,1.97,0.67,3.14,0.86
		c1.17,0.19,2.49,0.29,3.91,0.29c1.12,0,2.17-0.05,3.11-0.14c0.94-0.09,1.8-0.23,2.57-0.42c0.64-0.15,1.27-0.32,1.86-0.5
		c0.59-0.18,1.16-0.37,1.71-0.58c0.11-0.04,0.2-0.12,0.26-0.23c0.06-0.1,0.08-0.23,0.06-0.35l-1.19-6.56
		c-0.03-0.15-0.11-0.27-0.24-0.35c-0.12-0.08-0.27-0.09-0.41-0.05c-0.38,0.12-0.77,0.23-1.18,0.32c-0.41,0.1-0.82,0.18-1.26,0.26
		c-0.61,0.11-1.22,0.19-1.81,0.24c-0.59,0.05-1.19,0.08-1.76,0.08c-1.23,0-2.27-0.18-3.09-0.52c-0.85-0.36-1.5-0.91-1.93-1.64
		c-0.41-0.69-0.72-1.51-0.92-2.43c-0.2-0.91-0.3-1.94-0.3-3.08V55.62c0-0.32,0.13-0.63,0.35-0.86c0.23-0.23,0.53-0.35,0.85-0.35h11
		c0.14,0,0.27-0.05,0.37-0.15s0.15-0.23,0.15-0.37V46.8c0-0.14-0.05-0.27-0.15-0.36c-0.1-0.1-0.23-0.15-0.37-0.15h-11
		c-0.32,0-0.63-0.13-0.85-0.35c-0.23-0.23-0.35-0.53-0.35-0.85v-9.14C218.07,35.78,218.01,35.64,217.89,35.54z"/>
</g>
</svg>
